<svg xmlns="http://www.w3.org/2000/svg" viewBox="0 0 210 210"><path fill="#fff" d="M-21-21h252v252H-21z"/><path fill="#fff" d="M-21-21h252v252H-21z"/><path fill="#4ade80" d="M94 60H33v22h61v81H3v-30h61v-21H3V30h91Zm106-30v30h-31v103h-30V60h-30V30Zm0 0"/><path fill="#4ade80" d="M100 78H39v-2h2v21h-2v-2h63v86H7v-34h63v2h-2v-22h2v2H7V43h95v35Zm0-5v3h-2V45h2v2H9v-2h2v82H9v-2h63v26H9v-2h2v30H9v-2h91v2h-2V97h2v2H37V73Zm108-28v33h-33v-2h2v105h-34V76h2v2h-33V43h96Zm-4 0h2v2h-92v-2h3v31h-3v-3h33v106h-2v-2h30v2h-2V73h33v3h-2Zm0 0"/></svg>